<?xml version="1.0" encoding="UTF-8"?>
<svg version="1.1" xmlns="http://www.w3.org/2000/svg" width="114" height="136">
<path d="M0 0 C9.04171831 3.5116175 18.04349703 6.46185323 27.43359375 8.875 C30.625 9.75 30.625 9.75 31.625 10.75 C31.76368728 13.48242629 31.83825699 16.1875951 31.86328125 18.921875 C31.871353 19.75527405 31.87942474 20.5886731 31.88774109 21.44732666 C31.9016126 23.22283841 31.91232094 24.99837718 31.92016602 26.77392578 C31.9371661 29.44748787 31.98099394 32.11974278 32.02539062 34.79296875 C32.11710933 44.78160328 31.4744362 53.3711839 27.625 62.75 C27.34245361 63.45785645 27.05990723 64.16571289 26.76879883 64.89501953 C23.26074355 73.1034103 18.60153346 80.16383835 12.625 86.75 C11.88636719 87.58144531 11.14773437 88.41289063 10.38671875 89.26953125 C3.93518465 96.14342438 -3.29211182 101.0264986 -11.375 105.75 C-12.06851563 106.183125 -12.76203125 106.61625 -13.4765625 107.0625 C-17.04185472 108.35363463 -19.75533207 107.03600058 -23.06640625 105.5078125 C-31.25581585 100.85043398 -37.75350886 95.36208562 -44.375 88.75 C-45.48875 87.65365234 -45.48875 87.65365234 -46.625 86.53515625 C-60.43265279 72.05330166 -66.10200959 54.09860747 -65.81445312 34.48046875 C-65.77270727 32.73696538 -65.73038297 30.99347577 -65.6875 29.25 C-65.6623406 27.44404192 -65.63954115 25.63804936 -65.61914062 23.83203125 C-65.5648537 19.47047932 -65.47902284 15.11063744 -65.375 10.75 C-60.48763739 9.11749921 -55.59791907 7.49289858 -50.703125 5.8828125 C-48.6769742 5.21387214 -46.65093567 4.54459163 -44.625 3.875 C-43.56603516 3.52638916 -42.50707031 3.17777832 -41.41601562 2.81860352 C-34.85540199 0.63928366 -28.46434987 -1.69832398 -22.15625 -4.53515625 C-14.38731168 -6.53194798 -7.10944463 -2.83262043 0 0 Z " fill="#68ACFF" transform="translate(73.375,16.25)"/>
<path d="M0 0 C9.04171831 3.5116175 18.04349703 6.46185323 27.43359375 8.875 C30.625 9.75 30.625 9.75 31.625 10.75 C31.76368728 13.48242629 31.83825699 16.1875951 31.86328125 18.921875 C31.871353 19.75527405 31.87942474 20.5886731 31.88774109 21.44732666 C31.9016126 23.22283841 31.91232094 24.99837718 31.92016602 26.77392578 C31.9371661 29.44748787 31.98099394 32.11974278 32.02539062 34.79296875 C32.11710933 44.78160328 31.4744362 53.3711839 27.625 62.75 C27.34245361 63.45785645 27.05990723 64.16571289 26.76879883 64.89501953 C23.26074355 73.1034103 18.60153346 80.16383835 12.625 86.75 C11.88636719 87.58144531 11.14773437 88.41289063 10.38671875 89.26953125 C3.93518465 96.14342438 -3.29211182 101.0264986 -11.375 105.75 C-12.06851563 106.183125 -12.76203125 106.61625 -13.4765625 107.0625 C-17.04185472 108.35363463 -19.75533207 107.03600058 -23.06640625 105.5078125 C-31.25581585 100.85043398 -37.75350886 95.36208562 -44.375 88.75 C-45.48875 87.65365234 -45.48875 87.65365234 -46.625 86.53515625 C-60.43265279 72.05330166 -66.10200959 54.09860747 -65.81445312 34.48046875 C-65.77270727 32.73696538 -65.73038297 30.99347577 -65.6875 29.25 C-65.6623406 27.44404192 -65.63954115 25.63804936 -65.61914062 23.83203125 C-65.5648537 19.47047932 -65.47902284 15.11063744 -65.375 10.75 C-60.48763739 9.11749921 -55.59791907 7.49289858 -50.703125 5.8828125 C-48.6769742 5.21387214 -46.65093567 4.54459163 -44.625 3.875 C-43.56603516 3.52638916 -42.50707031 3.17777832 -41.41601562 2.81860352 C-34.85540199 0.63928366 -28.46434987 -1.69832398 -22.15625 -4.53515625 C-14.38731168 -6.53194798 -7.10944463 -2.83262043 0 0 Z M-24.453125 3.54296875 C-25.44248047 3.92396729 -26.43183594 4.30496582 -27.45117188 4.69750977 C-29.0222168 5.31130493 -29.0222168 5.31130493 -30.625 5.9375 C-40.11546753 9.57947408 -49.6203685 12.89533578 -59.375 15.75 C-59.96803532 42.31798216 -58.53110598 64.66801556 -39.375 84.75 C-33.24493803 90.92981897 -26.35988453 97.10195371 -18.375 100.75 C-8.39294843 100.05086798 1.97097179 88.64201205 8.625 81.75 C18.84198819 69.42237257 24.78910346 55.29893415 24.72265625 39.28515625 C24.7212413 38.60698349 24.71982635 37.92881073 24.71836853 37.23008728 C24.71282745 35.09084422 24.70028653 32.95171075 24.6875 30.8125 C24.68247736 29.35091298 24.6779158 27.88932431 24.67382812 26.42773438 C24.66287745 22.86845474 24.64565445 19.30923809 24.625 15.75 C23.18048462 15.27373169 23.18048462 15.27373169 21.70678711 14.7878418 C18.10695732 13.60003801 14.50848852 12.40815605 10.91040039 11.21508789 C9.35802989 10.70096706 7.80530081 10.18792753 6.25219727 9.67602539 C4.00960855 8.93665505 1.7683723 8.19330264 -0.47265625 7.44921875 C-1.15836197 7.22409103 -1.84406769 6.99896332 -2.55055237 6.76701355 C-5.82151036 5.67694371 -8.97792593 4.50628906 -12.11889648 3.08129883 C-16.88137891 1.13409806 -19.8411175 1.73916699 -24.453125 3.54296875 Z " fill="#F4F9FE" transform="translate(73.375,16.25)"/>
<path d="M0 0 C3.46941546 0.45822468 6.67395049 0.89131683 10 2 C11.8096818 2.11880354 13.62396447 2.1751965 15.4375 2.1875 C16.85869141 2.20876953 16.85869141 2.20876953 18.30859375 2.23046875 C20.96755153 2.17392915 20.96755153 2.17392915 22.97265625 0.98828125 C25.70286555 -0.34263003 28.00600722 -0.13609058 31 0 C31.11668214 3.87474457 31.18741231 7.74903396 31.25 11.625 C31.30027344 13.26662109 31.30027344 13.26662109 31.3515625 14.94140625 C31.42798253 21.24605852 31.44493158 25.32194264 27 30 C22.56930554 32.96542543 17.01904437 33.29112214 11.8125 32.7890625 C6.85676143 31.79416044 4.17559872 29.84921057 1 26 C-0.30475618 23.39048764 -0.11301572 21.47298715 -0.09765625 18.5546875 C-0.09443359 17.47832031 -0.09121094 16.40195313 -0.08789062 15.29296875 C-0.07951172 14.16503906 -0.07113281 13.03710938 -0.0625 11.875 C-0.05798828 10.73933594 -0.05347656 9.60367188 -0.04882812 8.43359375 C-0.03701615 5.62234362 -0.02054507 2.8111977 0 0 Z " fill="#FCFDFF" transform="translate(41,57)"/>
<path d="M0 0 C3.3792573 2.03005291 6.22397384 4.44794768 8 8 C8.13415472 10.6723621 8.04318541 13.32250488 8 16 C5.09399739 17.25664978 3.20395416 18 0 18 C-0.06058594 17.36191406 -0.12117188 16.72382812 -0.18359375 16.06640625 C-0.30927734 14.82697266 -0.30927734 14.82697266 -0.4375 13.5625 C-0.51871094 12.73878906 -0.59992187 11.91507813 -0.68359375 11.06640625 C-0.78930815 9.01337975 -0.78930815 9.01337975 -2 8 C-4.5 7.83333333 -4.5 7.83333333 -7 8 C-8.58272601 9.58272601 -8.34735747 11.38034003 -8.5625 13.5625 C-8.64628906 14.38878906 -8.73007812 15.21507812 -8.81640625 16.06640625 C-8.87699219 16.70449219 -8.93757813 17.34257813 -9 18 C-11.76276177 17.47731534 -14.3260876 16.89130413 -17 16 C-17.71920089 9.16759156 -17.71920089 9.16759156 -15.734375 5.9453125 C-11.06090343 0.4778045 -7.2783592 -1.29419438 0 0 Z " fill="#F6FAFF" transform="translate(61,39)"/>
<path d="M0 0 C2.5625 0.3125 2.5625 0.3125 4.4375 1.5 C5.5625 3.3125 5.5625 3.3125 5.3125 5.6875 C5.065 6.55375 4.8175 7.42 4.5625 8.3125 C4.376875 9.240625 4.19125 10.16875 4 11.125 C3.855625 11.846875 3.71125 12.56875 3.5625 13.3125 C1.2525 13.3125 -1.0575 13.3125 -3.4375 13.3125 C-3.65901549 11.52241533 -3.86432213 9.73031838 -4.0625 7.9375 C-4.17851563 6.93976563 -4.29453125 5.94203125 -4.4140625 4.9140625 C-4.42179687 4.05554688 -4.42953125 3.19703125 -4.4375 2.3125 C-2.4375 0.3125 -2.4375 0.3125 0 0 Z " fill="#6BADFF" transform="translate(56.4375,67.6875)"/>
<path d="M0 0 C-0.99 0.66 -1.98 1.32 -3 2 C-3.48988945 3.94098042 -3.48988945 3.94098042 -3.4765625 6.17578125 C-3.5075 7.00400391 -3.5384375 7.83222656 -3.5703125 8.68554688 C-3.58835937 9.55244141 -3.60640625 10.41933594 -3.625 11.3125 C-3.94080277 21.78925692 -3.94080277 21.78925692 -5 26 C-5.33 26 -5.66 26 -6 26 C-6 17.42 -6 8.84 -6 0 C-2 -1 -2 -1 0 0 Z " fill="#8CC1FF" transform="translate(20,32)"/>
<path d="M0 0 C-1.5625 1.125 -1.5625 1.125 -4 2 C-7.75 1.125 -7.75 1.125 -11 0 C-7.07632508 -2.82504594 -4.32061114 -1.49559616 0 0 Z " fill="#7DB8FF" transform="translate(52,57)"/>
</svg>
